# xmcd
#
# Track frame offsets: 
#        150
#        23017
#        42599
#        58990
#        73372
#
# Disc length: 1227 seconds
#
# Revision: 1
# Processed by: cddbd v1.5.2PL0 Copyright (c) Steve Scherf et al.
# Submitted via: ExactAudioCopyFreeDBPlugin 1.0
#
DISCID=4a04c905
DTITLE=Justin Saladino Band - No Worries
DYEAR=2016
DGENRE=Blues
TTITLE0=No Worries
TTITLE1=Irish Bordello
TTITLE2=Ain't Gonna Try
TTITLE3=Confusion
TTITLE4=Purple Girl
EXTD=YEAR: 2005
EXTT0=
EXTT1=
EXTT2=
EXTT3=
EXTT4=
PLAYORDER=
